{"title":"Youth-La Giovinezza (2015) - BDRip x265 HEVC - ITA ENG (ENG SUBS","uid":13674919,"size":1518374573,"categoryP":"video","categoryS":"hd___movies","magnet":"?xt=urn:btih:20289160913f14c38f0eda9508ea48c6fe3cdf6c&amp;dn=Youth-La+Giovinezza+%282015%29+-+BDRip+x265+HEVC+-+ITA+ENG+%28ENG+SUBS&amp;tr=udp%3A%2F%2Ftracker.leechers-paradise.org%3A6969&amp;tr=udp%3A%2F%2Fzer0day.ch%3A1337&amp;tr=udp%3A%2F%2Fopen.demonii.com%3A1337&amp;tr=udp%3A%2F%2Ftracker.coppersurfer.tk%3A6969&amp;tr=udp%3A%2F%2Fexodus.desync.com%3A6969","seeders":13,"leechers":3,"uploader":"BRSHNKV","files":1,"time":1456385729,"description":"Fred and Mick, two old friends, are on vacation in an elegant hotel at the foot of the Alps. Fred, a composer and conductor, is now retired. Mick, a film director, is still working. They look with curiosity and tenderness on their children's confused lives, Micks enthusiastic young writers, and the other hotel guests. While Mick scrambles to finish the screenplay for what he imagines will be his last important film, Fred has no intention of resuming his musical career. But someone wants at all costs to hear him conduct again.\r\n\r\n\r\n\r\nTechnical:\r\n\r\nFormat : MPEG-4\r\nFormat profile : Base Media / Version 2\r\nCodec ID : mp42\r\nFile size : 1.41 GiB\r\nDuration : 2h 3mn\r\nOverall bit rate mode : Variable\r\nOverall bit rate : 1 638 Kbps\r\nEncoded date : UTC 2016-02-22 23:40:30\r\nTagged date : UTC 2016-02-22 23:40:30\r\nWriting application : HandBrake 0.10.2 2015061100\r\n\r\nVideo\r\nID : 1\r\nFormat : HEVC\r\nFormat/Info : High Efficiency Video Coding\r\nFormat profile :   @Main\r\nCodec ID : hev1\r\nCodec ID/Info : High Efficiency Video Coding\r\nDuration : 2h 3mn\r\nBit rate : 1 301 Kbps\r\nWidth : 1 920 pixels\r\nHeight : 804 pixels\r\nDisplay aspect ratio : 2.40:1\r\nFrame rate mode : Variable\r\nFrame rate : 23.976 fps\r\nMinimum frame rate : 23.974 fps\r\nMaximum frame rate : 23.981 fps\r\nColor space : YUV\r\nChroma subsampling : 4:2:0\r\nBit depth : 8 bits\r\nBits/(Pixel*Frame) : 0.035\r\nStream size : 1.12 GiB (79%)\r\nWriting library : x265 1.5:[Mac OS X][clang 6.1.0][64 bit]\r\nEncoded date : UTC 2016-02-22 23:40:30\r\nTagged date : UTC 2016-02-22 23:40:30\r\nColor range : Limited\r\nColor primaries : BT.709\r\nTransfer characteristics : BT.709\r\nMatrix coefficients : BT.709\r\n\r\nAudio #1\r\nID : 2\r\nFormat : AAC\r\nFormat/Info : Advanced Audio Codec\r\nFormat profile : LC\r\nCodec ID : 40\r\nDuration : 2h 3mn\r\nBit rate mode : Variable\r\nBit rate : 163 Kbps\r\nChannel(s) : 2 channels\r\nChannel positions : Front: L R\r\nSampling rate : 48.0 KHz\r\nCompression mode : Lossy\r\nStream size : 144 MiB (10%)\r\nTitle : Stereo / Stereo\r\nLanguage : English\r\nEncoded date : UTC 2016-02-22 23:40:30\r\nTagged date : UTC 2016-02-22 23:40:30\r\n\r\nAudio #2\r\nID : 3\r\nFormat : AAC\r\nFormat/Info : Advanced Audio Codec\r\nFormat profile : LC\r\nCodec ID : 40\r\nDuration : 2h 3mn\r\nBit rate mode : Variable\r\nBit rate : 164 Kbps\r\nChannel(s) : 2 channels\r\nChannel positions : Front: L R\r\nSampling rate : 48.0 KHz\r\nCompression mode : Lossy\r\nStream size : 145 MiB (10%)\r\nTitle : Stereo / Stereo\r\nLanguage : Italian\r\nEncoded date : UTC 2016-02-22 23:40:30\r\nTagged date : UTC 2016-02-22 23:40:30\r\n\r\nText\r\nID : 4\r\nFormat : Timed Text\r\nMuxing mode : sbtl\r\nCodec ID : tx3g\r\nDuration : 2h 3mn\r\nBit rate mode : Variable\r\nBit rate : 48 bps\r\nStream size : 43.0 KiB (0%)\r\nLanguage : English\r\nEncoded date : UTC 2016-02-22 23:40:30\r\nTagged date : UTC 2016-02-22 23:40:30\r\n\r\nMenu\r\nID : 5\r\nCodec ID : text\r\nDuration : 2h 3mn\r\nLanguage : English\r\nEncoded date : UTC 2016-02-22 23:40:30\r\nTagged date : UTC 2016-02-22 23:40:30\r\nBit rate mode : CBR\r\n00:00:00.000 : 00:00:00.000\r\n00:08:02.899 : 00:07:52.805\r\n00:13:24.804 : 00:13:19.548\r\n00:20:04.703 : 00:20:04.620\r\n00:26:32.633 : 00:26:32.549\r\n00:43:57.718 : 00:43:57.635\r\n00:48:01.629 : 00:47:56.331\r\n00:53:50.102 : 00:53:46.056\r\n00:56:47.571 : 00:56:47.487\r\n01:03:54.414 : 01:03:54.330\r\n01:15:18.264 : 01:15:18.180\r\n01:23:02.853 : 01:23:02.769\r\n01:30:32.510 : 01:30:32.426\r\n01:35:14.542 : 01:35:09.870\r\n01:43:51.267 : 01:43:46.053\r\n01:47:49.630 : 01:47:43.623","torrent":{"xt":"urn:btih:20289160913f14c38f0eda9508ea48c6fe3cdf6c","amp;dn":"Youth-La+Giovinezza+%282015%29+-+BDRip+x265+HEVC+-+ITA+ENG+%28ENG+SUBS","amp;tr":["udp%3A%2F%2Ftracker.leechers-paradise.org%3A6969","udp%3A%2F%2Fzer0day.ch%3A1337","udp%3A%2F%2Fopen.demonii.com%3A1337","udp%3A%2F%2Ftracker.coppersurfer.tk%3A6969","udp%3A%2F%2Fexodus.desync.com%3A6969"],"infoHash":"20289160913f14c38f0eda9508ea48c6fe3cdf6c","infoHashBuffer":{"type":"Buffer","data":[32,40,145,96,145,63,20,195,143,14,218,149,8,234,72,198,254,60,223,108]},"announce":[],"urlList":[]}}